#!OML:ASF C:\ViconDB\ViconDB\414\Spring2016\041811\Spring2016.ASF
:FULLY-SPECIFIED
:DEGREES
216
root 7.53153 20.0563 -23.7338 -175.69 -2.99815 179.457
lowerback 8.41992 0.98865 -3.20026
upperback 0.668106 1.004 1.13359
thorax -4.10722 0.538317 2.86221
lowerneck -9.56614 -5.94168 -16.9402
upperneck 12.1654 -8.81282 18.7707
head 6.87582 -4.01066 8.19387
rclavicle 1.86858e-014 4.57205e-015
rhumerus -2.94284 9.08635 -53.1897
rradius 128.857
rwrist -11.7802
rhand -36.1759 -18.6209
rfingers 7.12502
rthumb -9.27958 -48.3966
lclavicle 1.86858e-014 4.57205e-015
lhumerus 5.74275 6.2097 44.6387
lradius 103.414
lwrist 8.92901
lhand -36.1702 15.3599
lfingers 7.12502
lthumb -9.27403 45.1359
rfemur -3.66011 -14.9461 14.905
rtibia 42.1151
rfoot -27.5739 -0.365968
rtoes -11.2117
lfemur -11.4375 3.44475 -10.4691
ltibia 44.6433
lfoot 2.47464 1.58375
ltoes -7.47346
217
root 7.53398 20.1896 -23.9801 -175.856 -2.58743 179.515
lowerback 9.01094 1.16509 -3.07977
upperback 0.877886 1.21856 1.17807
thorax -4.23385 0.634245 2.80924
lowerneck -9.79781 -6.01435 -16.8451
upperneck 12.0773 -8.81889 18.5595
head 6.87752 -4.00053 8.09377
rclavicle 1.39149e-015 -2.98177e-015
rhumerus -4.5037 10.0592 -54.8452
rradius 128.496
rwrist -9.31851
rhand -36.0266 -18.2938
rfingers 7.12502
rthumb -9.1355 -48.076
lclavicle 1.39149e-015 -2.98177e-015
lhumerus 4.22625 5.72947 45.3465
lradius 103.44
lwrist 8.25162
lhand -36.5372 15.7996
lfingers 7.12502
lthumb -9.62817 45.5596
rfemur -4.25978 -14.9457 15.1103
rtibia 41.0402
rfoot -27.2603 -1.12232
rtoes -10.9939
lfemur -11.9433 4.22625 -10.5801
ltibia 44.1033
lfoot 1.57692 1.3892
ltoes -6.80908
218
root 7.53198 20.3079 -24.2215 -175.94 -2.08062 179.68
lowerback 9.53304 1.34274 -2.83785
upperback 1.13424 1.44624 1.22236
thorax -4.26981 0.730442 2.68443
lowerneck -10.1357 -6.05761 -16.8475
upperneck 11.9744 -8.79076 18.5516
head 6.90194 -3.96412 8.08685
rclavicle -1.8487e-014 -6.36111e-015
rhumerus -6.08166 10.7738 -56.6476
rradius 127.634
rwrist -7.31463
rhand -36.2021 -17.7446
rfingers 7.12502
rthumb -9.30478 -47.5192
lclavicle -1.8487e-014 -6.36111e-015
lhumerus 2.52405 5.61568 46.5689
lradius 103.191
lwrist 7.05638
lhand -36.3354 15.4605
lfingers 7.12502
lthumb -9.4334 45.2294
rfemur -5.01173 -15.1015 15.3881
rtibia 39.7835
rfoot -27.2573 -1.87801
rtoes -10.3116
lfemur -12.5392 4.96117 -10.623
ltibia 43.3798
lfoot 0.658414 1.20949
ltoes -6.43212
219
root 7.53121 20.4121 -24.4589 -176.003 -1.62494 179.624
lowerback 10.2075 1.54858 -2.82686
upperback 1.34288 1.68199 1.23988
thorax -4.44457 0.836571 2.6554
lowerneck -10.3969 -6.12504 -16.9674
upperneck 11.8693 -8.80402 18.6157
head 6.92887 -3.95343 8.12297
rclavicle -3.926e-015 -8.34896e-015
rhumerus -7.96013 11.601 -58.1903
rradius 126.62
rwrist -6.16887
rhand -36.4525 -17.7462
rfingers 7.12502
rthumb -9.54641 -47.5099
lclavicle -3.926e-015 -8.34896e-015
lhumerus 0.589476 5.09088 47.7042
lradius 102.818
lwrist 5.84555
lhand -36.2985 15.0183
lfingers 7.12502
lthumb -9.39787 44.7888
rfemur -5.7977 -15.1811 15.538
rtibia 38.3524
rfoot -27.1923 -2.33886
rtoes -10.5524
lfemur -13.1974 5.47965 -10.9113
ltibia 42.4519
lfoot -0.136352 1.16703
ltoes -6.18349
220
root 7.53233 20.5037 -24.6929 -176.03 -1.25284 179.685
lowerback 10.9008 1.6866 -2.70101
upperback 1.58247 1.83404 1.23103
thorax -4.58587 0.895803 2.54302
lowerneck -10.6254 -6.15337 -16.7872
upperneck 11.6065 -8.76216 18.5157
head 6.86774 -3.91357 8.0498
rclavicle 0 3.97569e-016
rhumerus -9.77247 12.4734 -59.8207
rradius 125.16
rwrist -5.24129
rhand -36.8263 -17.9765
rfingers 7.12502
rthumb -9.90706 -47.7234
lclavicle 0 3.97569e-016
lhumerus -1.515 4.39519 48.522
lradius 102.294
lwrist 4.59198
lhand -36.3813 14.7882
lfingers 7.12502
lthumb -9.47769 44.5551
rfemur -6.70378 -15.5241 15.9024
rtibia 36.8666
rfoot -27.0306 -2.41787
rtoes -10.6534
lfemur -13.9058 5.75875 -11.059
ltibia 41.3421
lfoot -0.84708 1.22508
ltoes -5.91
221
root 7.53144 20.5934 -24.9265 -175.941 -0.905611 179.686
lowerback 11.555 1.8299 -2.44654
upperback 1.80652 2.00397 1.07965
thorax -4.71107 0.960551 2.20424
lowerneck -10.845 -6.21015 -16.6699
upperneck 11.286 -8.83237 18.7951
head 6.83152 -3.91827 8.1092
rclavicle 1.43125e-014 -7.15625e-015
rhumerus -11.7775 12.8789 -61.747
rradius 123.505
rwrist -5.08908
rhand -36.9008 -18.1596
rfingers 7.12502
rthumb -9.97897 -47.9031
lclavicle 1.43125e-014 -7.15625e-015
lhumerus -3.4696 3.44139 49.2402
lradius 101.568
lwrist 3.65677
lhand -36.273 14.5724
lfingers 7.12502
lthumb -9.3732 44.344
rfemur -7.73818 -15.3474 16.2363
rtibia 35.3476
rfoot -26.4621 -2.21622
rtoes -10.1746
lfemur -14.6895 5.93889 -11.2985
ltibia 40.0199
lfoot -1.5121 1.38327
ltoes -6.58423
222
root 7.53617 20.6692 -25.1611 -175.823 -0.609702 179.634
lowerback 12.2634 1.94458 -2.21073
upperback 1.97326 2.13417 0.896319
thorax -4.91989 1.00772 1.84429
lowerneck -10.9756 -6.2526 -16.6592
upperneck 10.9868 -8.87611 19.0601
head 6.78528 -3.92003 8.1877
rclavicle -2.38045e-014 8.15017e-015
rhumerus -13.8482 13.3021 -63.64
rradius 121.394
rwrist -4.5122
rhand -37.2515 -18.7417
rfingers 7.12502
rthumb -10.3172 -48.4686
lclavicle -2.38045e-014 8.15017e-015
lhumerus -5.61013 2.30086 50.0221
lradius 100.471
lwrist 2.06899
lhand -36.2831 14.8202
lfingers 7.12502
lthumb -9.38293 44.5914
rfemur -8.8791 -15.5012 16.5744
rtibia 33.8169
rfoot -26.0954 -1.62164
rtoes -10.2425
lfemur -15.474 6.02975 -11.5549
ltibia 38.5253
lfoot -2.05122 1.53262
ltoes -5.4392
223
root 7.53809 20.7271 -25.3923 -175.702 -0.383495 179.679
lowerback 12.973 2.08115 -1.88647
upperback 2.18362 2.30631 0.807173
thorax -5.08232 1.07062 1.5243
lowerneck -11.2738 -6.38315 -16.6346
upperneck 10.7966 -8.99419 19.143
head 6.80759 -3.95371 8.18869
rclavicle 6.95746e-016 -1.98785e-015
rhumerus -15.7672 13.4219 -65.2679
rradius 119.061
rwrist -4.62311
rhand -37.4145 -19.1701
rfingers 7.12502
rthumb -10.4745 -48.8891
lclavicle 6.95746e-016 -1.98785e-015
lhumerus -7.68511 1.0819 50.9991
lradius 99.3784
lwrist 1.45484
lhand -36.2465 14.8231
lfingers 7.12502
lthumb -9.34762 44.5959
rfemur -10.0665 -15.7205 17.0888
rtibia 32.3205
rfoot -25.8392 -0.760207
rtoes -10.6228
lfemur -16.2147 5.99492 -11.6805
ltibia 36.8723
lfoot -2.48324 1.8433
ltoes -4.92734
224
root 7.54043 20.7793 -25.6258 -175.55 -0.155385 179.831
lowerback 13.6044 2.12287 -1.67998
upperback 2.41637 2.34323 0.831031
thorax -5.17885 1.06744 1.41386
lowerneck -11.538 -6.47917 -16.4637
upperneck 10.6207 -9.05156 18.9969
head 6.79631 -3.96452 8.08965
rclavicle -1.799e-014 -1.98785e-015
rhumerus -17.4671 13.7292 -66.9173
rradius 116.338
rwrist -3.88052
rhand -37.9161 -20.4718
rfingers 7.12502
rthumb -10.9584 -50.1658
lclavicle -1.799e-014 -1.98785e-015
lhumerus -10.0783 0.0639432 51.9383
lradius 97.9789
lwrist 0.677112
lhand -36.2116 14.4088
lfingers 7.12502
lthumb -9.31401 44.1831
rfemur -11.3456 -15.9305 17.742
rtibia 30.8933
rfoot -25.5112 0.300543
rtoes -10.9645
lfemur -16.9362 5.96064 -11.6525
ltibia 35.1131
lfoot -2.62803 2.22393
ltoes -4.70155
225
root 7.54812 20.8134 -25.857 -175.395 0.0342392 179.888
lowerback 14.2586 1.88277 -1.67229
upperback 2.60702 2.61414 0.878024
thorax -5.34207 1.45308 1.36953
lowerneck -11.5533 -6.55533 -16.603
upperneck 10.3279 -9.0715 19.0156
head 6.72063 -3.97331 8.11148
rclavicle 2.45499e-014 2.38542e-015
rhumerus -19.2358 13.3225 -68.2457
rradius 113.594
rwrist -4.88954
rhand -37.1044 -18.9191
rfingers 7.12502
rthumb -10.1754 -48.653
lclavicle 2.45499e-014 2.38542e-015
lhumerus -12.392 -1.61097 53.1415
lradius 96.5782
lwrist 0.463632
lhand -36.3964 14.6725
lfingers 7.12502
lthumb -9.49228 44.4387
rfemur -12.6557 -16.2639 18.3141
rtibia 29.4923
rfoot -25.3392 1.49833
rtoes -11.3414
lfemur -17.6864 5.82918 -11.6486
ltibia 33.3313
lfoot -2.56462 2.73407
ltoes -4.52264
226
root 7.55219 20.8277 -26.085 -175.259 0.165076 179.855
lowerback 15.041 1.87718 -1.67932
upperback 2.7892 2.63448 0.900818
thorax -5.57873 1.4789 1.3697
lowerneck -11.7145 -6.53719 -16.5826
upperneck 10.1357 -8.96242 18.9189
head 6.663 -3.9125 8.08034
rclavicle -2.72335e-014 -1.43125e-014
rhumerus -20.8388 13.4155 -69.6275
rradius 110.718
rwrist -5.19849
rhand -36.9421 -19.3746
rfingers 7.12502
rthumb -10.0188 -49.1161
lclavicle -2.72335e-014 -1.43125e-014
lhumerus -14.8464 -2.82212 54.4269
lradius 94.9032
lwrist 0.0447078
lhand -36.2115 14.5526
lfingers 7.12502
lthumb -9.3139 44.3269
rfemur -14.0175 -16.9851 18.8137
rtibia 28.1737
rfoot -25.3668 2.52641
rtoes -12.1536
lfemur -18.4263 5.65151 -11.7428
ltibia 31.5416
lfoot -2.22048 3.24158
ltoes -5.09401
